<svg xmlns="http://www.w3.org/2000/svg" version="1.1" xmlns:xlink="http://www.w3.org/1999/xlink" xmlns:svgjs="http://svgjs.dev/svgjs" width="1000" height="1000" viewBox="0 0 1000 1000"><rect width="1000" height="1000" fill="#000000"></rect><g transform="matrix(0.7,0,0,0.7,150,150.00031367150888)"><svg viewBox="0 0 280 280" data-background-color="#ffffff" preserveAspectRatio="xMidYMid meet" height="1000" width="1000" xmlns="http://www.w3.org/2000/svg" xmlns:xlink="http://www.w3.org/1999/xlink"><g id="tight-bounds" transform="matrix(1,0,0,1,0,-0.00012546860355655554)"><svg viewBox="0 0 280 280" height="280" width="280"><g><svg viewBox="0 0 280 280" height="280" width="280"><g><svg viewBox="0 0 280 280" height="280" width="280"><g id="textblocktransform"><svg viewBox="0 0 280 280" height="280" width="280" id="textblock"><g><svg viewBox="0 0 280 280" height="280" width="280"><g transform="matrix(1,0,0,1,90.50252531694167,114.02236561463562)"><svg viewBox="0 0 98.99494936611664 51.95526877072878" height="51.95526877072878" width="98.99494936611664"><g><svg xmlns="http://www.w3.org/2000/svg" xmlns:xlink="http://www.w3.org/1999/xlink" version="1.1" x="0" y="0" viewBox="5 26.381999969482422 90.0009994506836 47.2349967956543" enable-background="new 0 0 100 100" xml:space="preserve" height="51.95526877072878" width="98.99494936611664" class="icon-o-0" data-fill-palette-color="accent" id="o-0"><path fill="none" d="M50.482 28.475c-0.03 0.03-0.071 0.048-0.106 0.072C50.411 28.522 50.452 28.505 50.482 28.475z"></path><path fill="none" d="M50.628 28.259c-0.021 0.052-0.06 0.093-0.093 0.138C50.568 28.352 50.606 28.311 50.628 28.259z"></path><path fill="none" d="M50.553 27.618c0.025 0.037 0.058 0.069 0.075 0.111C50.61 27.688 50.578 27.655 50.553 27.618z"></path><path fill="none" d="M50.266 28.621c-0.082 0.034-0.171 0.053-0.265 0.053C50.095 28.674 50.184 28.655 50.266 28.621z"></path><path fill="none" d="M50.001 28.674c-0.375 0-0.68-0.304-0.68-0.68s0.305-0.68 0.68-0.68c-0.376 0-0.681 0.304-0.681 0.68S49.625 28.674 50.001 28.674z"></path><path fill="none" d="M50.001 27.314c0.094 0 0.183 0.019 0.265 0.053C50.184 27.333 50.095 27.314 50.001 27.314z"></path><path fill="none" d="M50.376 27.442c0.036 0.024 0.076 0.041 0.106 0.071C50.452 27.483 50.412 27.466 50.376 27.442z"></path><path fill="none" d="M54.305 70.684c0.375 0 0.678 0.305 0.68 0.68C54.984 70.988 54.68 70.684 54.305 70.684z"></path><path d="M86.63 69.109c0.108-0.227 0.177-0.478 0.177-0.746V28.107c0-0.953-0.772-1.725-1.727-1.725H14.92c-0.953 0-1.724 0.772-1.724 1.725v40.256c0 0.269 0.066 0.52 0.176 0.746H5v2.783c0 0.953 0.773 1.725 1.726 1.725h86.549c0.953 0 1.726-0.771 1.726-1.725v-2.783H86.63zM50.001 27.314c0.094 0 0.183 0.019 0.265 0.053 0.042 0.018 0.074 0.049 0.11 0.075 0.036 0.024 0.076 0.041 0.106 0.071 0.03 0.03 0.047 0.07 0.071 0.105 0.025 0.037 0.058 0.069 0.075 0.111 0.034 0.081 0.054 0.171 0.054 0.265s-0.02 0.183-0.054 0.265c-0.021 0.052-0.06 0.093-0.093 0.138-0.02 0.025-0.031 0.056-0.053 0.078-0.03 0.03-0.071 0.048-0.106 0.072-0.037 0.025-0.069 0.057-0.11 0.074-0.082 0.034-0.171 0.053-0.265 0.053-0.376 0-0.681-0.304-0.681-0.68S49.625 27.314 50.001 27.314zM16.143 29.708h67.714v36.571H16.143V29.708zM54.305 72.046h-8.608c-0.375 0-0.68-0.305-0.68-0.683 0-0.375 0.305-0.68 0.68-0.68h8.608c0.375 0 0.68 0.305 0.68 0.68C54.984 71.741 54.68 72.046 54.305 72.046z" fill="#ffffff" data-fill-palette-color="accent"></path><polygon points="25.039,48.313 25.039,49.536 25.039,49.537 44.878,49.537 44.878,49.536 44.878,48.313 44.878,48.312   25.039,48.312 " fill="#ffffff" data-fill-palette-color="accent"></polygon><rect x="36.633" y="58.613" width="3.488" height="1.225" fill="#ffffff" data-fill-palette-color="accent"></rect><rect x="46.552" y="48.313" width="3.488" height="1.224" fill="#ffffff" data-fill-palette-color="accent"></rect><rect x="39.377" y="46.296" width="3.488" height="1.224" fill="#ffffff" data-fill-palette-color="accent"></rect><rect x="20.692" y="31.829" width="3.489" height="1.224" fill="#ffffff" data-fill-palette-color="accent"></rect><rect x="20.692" y="42.131" width="3.489" height="1.224" fill="#ffffff" data-fill-palette-color="accent"></rect><rect x="20.692" y="46.296" width="3.489" height="1.224" fill="#ffffff" data-fill-palette-color="accent"></rect><rect x="20.692" y="48.313" width="3.489" height="1.224" fill="#ffffff" data-fill-palette-color="accent"></rect><rect x="20.692" y="44.191" width="5.832" height="1.224" fill="#ffffff" data-fill-palette-color="accent"></rect><rect x="25.039" y="46.296" width="12.665" height="1.224" fill="#ffffff" data-fill-palette-color="accent"></rect><rect x="20.692" y="50.373" width="3.489" height="1.223" fill="#ffffff" data-fill-palette-color="accent"></rect><rect x="20.692" y="54.494" width="3.489" height="1.223" fill="#ffffff" data-fill-palette-color="accent"></rect><rect x="53.637" y="50.373" width="3.488" height="1.223" fill="#ffffff" data-fill-palette-color="accent"></rect><rect x="25.039" y="50.373" width="27.761" height="1.223" fill="#ffffff" data-fill-palette-color="accent"></rect><rect x="20.692" y="52.434" width="27.792" height="1.223" fill="#ffffff" data-fill-palette-color="accent"></rect><rect x="25.039" y="54.494" width="23.444" height="1.223" fill="#ffffff" data-fill-palette-color="accent"></rect><rect x="20.692" y="56.555" width="17.012" height="1.223" fill="#ffffff" data-fill-palette-color="accent"></rect><rect x="20.692" y="58.613" width="14.267" height="1.225" fill="#ffffff" data-fill-palette-color="accent"></rect><rect x="20.692" y="60.674" width="7.134" height="1.225" fill="#ffffff" data-fill-palette-color="accent"></rect><rect x="20.692" y="62.736" width="5.832" height="1.223" fill="#ffffff" data-fill-palette-color="accent"></rect><rect x="20.692" y="33.89" width="8.694" height="1.224" fill="#ffffff" data-fill-palette-color="accent"></rect><rect x="20.692" y="35.95" width="11.594" height="1.224" fill="#ffffff" data-fill-palette-color="accent"></rect><rect x="20.692" y="38.01" width="8.694" height="1.224" fill="#ffffff" data-fill-palette-color="accent"></rect><rect x="20.692" y="40.071" width="8.694" height="1.224" fill="#ffffff" data-fill-palette-color="accent"></rect><rect x="18.798" y="31.829" width="1.058" height="1.224" fill="#ffffff" data-fill-palette-color="accent"></rect><rect x="18.798" y="33.89" width="1.058" height="1.224" fill="#ffffff" data-fill-palette-color="accent"></rect><rect x="18.798" y="35.95" width="1.058" height="1.224" fill="#ffffff" data-fill-palette-color="accent"></rect><rect x="18.798" y="38.01" width="1.058" height="1.224" fill="#ffffff" data-fill-palette-color="accent"></rect><rect x="18.798" y="40.071" width="1.058" height="1.224" fill="#ffffff" data-fill-palette-color="accent"></rect><rect x="18.798" y="42.131" width="1.058" height="1.224" fill="#ffffff" data-fill-palette-color="accent"></rect><rect x="18.798" y="44.191" width="1.058" height="1.224" fill="#ffffff" data-fill-palette-color="accent"></rect><rect x="18.798" y="46.252" width="1.058" height="1.224" fill="#ffffff" data-fill-palette-color="accent"></rect><rect x="18.798" y="48.313" width="1.058" height="1.224" fill="#ffffff" data-fill-palette-color="accent"></rect><rect x="18.798" y="50.373" width="1.058" height="1.223" fill="#ffffff" data-fill-palette-color="accent"></rect><rect x="18.798" y="52.434" width="1.058" height="1.223" fill="#ffffff" data-fill-palette-color="accent"></rect><rect x="18.798" y="54.494" width="1.058" height="1.223" fill="#ffffff" data-fill-palette-color="accent"></rect><rect x="18.798" y="56.555" width="1.058" height="1.223" fill="#ffffff" data-fill-palette-color="accent"></rect><rect x="18.798" y="58.613" width="1.058" height="1.225" fill="#ffffff" data-fill-palette-color="accent"></rect><rect x="18.798" y="60.674" width="1.058" height="1.225" fill="#ffffff" data-fill-palette-color="accent"></rect><rect x="18.798" y="62.736" width="1.058" height="1.223" fill="#ffffff" data-fill-palette-color="accent"></rect></svg></g></svg></g><path d="M27.309 191.119c0.251 1.99-0.002 3.622-0.759 4.897-0.759 1.268-2.012 2.205-3.76 2.809v0c-5.113 1.765-8.988-1.169-11.624-8.805v0c-0.91-2.635-1.601-4.821-2.074-6.558v0l-0.013-0.038 8.138-2.483 18.606-6.751 2.914 8.317c0.892 2.585 1.025 4.784 0.399 6.598-0.633 1.816-2.018 3.094-4.157 3.832v0c-1.503 0.519-2.909 0.617-4.217 0.295-1.308-0.323-2.459-1.027-3.453-2.113zM32.955 188.695c1.333-0.46 2.16-1.165 2.48-2.113 0.326-0.95 0.182-2.315-0.432-4.095v0l-0.977-2.83-8.25 2.711 1.359 4.335c0.729 1.114 1.563 1.836 2.501 2.166 0.936 0.325 2.042 0.266 3.319-0.174zM14.75 189.575c0.71 2.057 1.644 3.508 2.802 4.354 1.162 0.838 2.491 0.998 3.988 0.481v0c2.39-0.825 3.26-2.85 2.611-6.075v0l-1.721-4.864-3.513 1.17-5.08 1.891c0.292 1.11 0.596 2.124 0.913 3.043zM47.216 228.544c-1.22 3.569-2.38 7.565-3.479 11.988v0l-0.436 0.303c-1.257-0.795-2.417-1.729-3.48-2.803v0l-0.056-0.637c1.557-4.409 2.933-8.066 4.128-10.971v0l-3.039-3.729-0.92 0.75-6.763 5.793-2.919-3.582 6.787-5.131 15.148-12.741 6.095 7.418c1.803 2.213 2.644 4.372 2.524 6.479-0.12 2.106-1.204 3.994-3.252 5.662v0c-1.46 1.189-3.086 1.879-4.879 2.07-1.798 0.195-3.618-0.095-5.459-0.869zM52.266 213.68l-8.485 6.746 2.964 3.842c2.581 1.725 5.089 1.595 7.523-0.388v0c1.279-1.042 1.952-2.17 2.019-3.384 0.076-1.212-0.438-2.544-1.543-3.995v0zM88.399 238.711c3.401 1.934 5.425 4.471 6.073 7.611 0.648 3.14-0.131 6.65-2.338 10.53v0c-2.382 4.187-5.207 6.867-8.476 8.038-3.266 1.166-6.712 0.718-10.338-1.344v0c-3.372-1.918-5.358-4.475-5.958-7.672-0.597-3.202 0.229-6.782 2.479-10.737v0c2.339-4.112 5.117-6.723 8.335-7.832 3.218-1.109 6.625-0.641 10.223 1.406zM86.264 241.757c-2.325-1.322-4.478-1.56-6.46-0.713-1.988 0.844-3.868 2.825-5.642 5.942v0c-1.931 3.395-2.788 6.195-2.572 8.4 0.219 2.199 1.491 3.959 3.815 5.281v0c2.354 1.339 4.519 1.575 6.497 0.71 1.981-0.871 3.879-2.903 5.694-6.095v0c1.901-3.343 2.736-6.102 2.504-8.278-0.232-2.176-1.511-3.925-3.836-5.247zM137.179 253.202l-2.322 14.183-0.56 3.296c-0.47 3.435-1.808 5.948-4.013 7.54-2.212 1.591-5.073 2.115-8.584 1.572v0c-3.399-0.525-5.857-1.834-7.371-3.926-1.521-2.093-1.995-4.802-1.421-8.126v0l0.689-3.873 2.071-13.989 4.438 0.685-2.842 17.223c-0.403 2.435-0.161 4.331 0.727 5.687 0.895 1.357 2.43 2.203 4.606 2.539v0c4.353 0.672 6.866-1.259 7.54-5.793v0l2.515-17.718zM176.067 272.535l0.381 0.332 0.309 3.397-14.269 2.797-1.342-8.402-4.1-19.364 4.583-0.898 3.466 19.081 1.071 4.997zM198.004 235.316l22.257 19.707-4.02 2.378-2.182-2.396-3.063-2.746-5.219 2.938-4.598 2.871 0.742 3.862 1.118 3.281-3.899 2.307-5.723-29.488zM204.269 252.041l3.854-2.384-10.129-9.163-0.266 0.157 2.665 13.579zM237.729 224.109l1.453 1.28 6.308 5.106-2.93 3.469-6.057-5.403-1.337-1.078-19.875-5.082 3.124-3.698 1.723 0.698 12.67 3.373 0.225-0.267-4.984-12.349-0.96-1.725 3.046-3.606zM265.096 189.064l2.348-6.425 0.467-0.092 3.116 1.587-6.231 15.491-7.773-3.46-18.476-7.098 6.264-15.574 0.471-0.101 3.097 1.633-2.666 6.146-1.97 5.005 7.6 3.197 1.99-4.707 1.626-4.391 0.436-0.148 3.101 1.624-1.979 4.572-1.717 4.484 3.38 1.413 4.876 1.81z" fill="#ffffff" data-fill-palette-color="primary"></path><path d="M20.29 93.773C21.309 92.062 22.499 90.945 23.861 90.422 25.226 89.892 26.773 89.925 28.503 90.521V90.521C33.548 92.258 34.773 96.898 32.176 104.441V104.441C31.277 107.051 30.486 109.175 29.803 110.812V110.812L29.79 110.849 21.946 107.822 3.368 101.754 6.163 93.512C7.042 90.958 8.279 89.164 9.873 88.129 11.472 87.103 13.328 86.954 15.442 87.682V87.682C16.921 88.191 18.07 88.97 18.891 90.02 19.712 91.069 20.178 92.32 20.29 93.773ZM14.432 92.211C13.117 91.758 12.043 91.803 11.208 92.346 10.38 92.892 9.664 94.042 9.06 95.797V95.797L8.098 98.59 16.162 101.503 17.743 97.309C17.857 95.997 17.648 94.929 17.115 94.105 16.591 93.277 15.697 92.646 14.432 92.211ZM29.133 102.612C29.832 100.58 29.983 98.883 29.586 97.522 29.198 96.157 28.264 95.22 26.786 94.711V94.711C24.427 93.899 22.514 94.947 21.049 97.855V97.855L19.439 102.684 22.88 103.911 27.98 105.529C28.437 104.49 28.821 103.518 29.133 102.612ZM46.644 58.291C50.347 58.757 54.445 59.076 58.937 59.249V59.249L59.316 59.622C58.794 60.99 58.122 62.296 57.299 63.539V63.539L56.7 63.721C52.12 63.099 48.305 62.5 45.257 61.923V61.923L42.259 65.608 43.172 66.351 50.131 71.731 47.246 75.276 40.923 69.732 25.571 57.638 31.531 50.251C33.307 48.069 35.225 46.824 37.284 46.518 39.348 46.216 41.391 46.888 43.414 48.535V48.535C44.854 49.706 45.848 51.141 46.396 52.84 46.944 54.538 47.027 56.355 46.644 58.291ZM31.258 56.373L39.482 63.233 42.607 59.599C43.758 56.762 43.128 54.362 40.718 52.401V52.401C39.459 51.376 38.235 50.951 37.047 51.125 35.859 51.299 34.675 52.064 33.495 53.419V53.419ZM70.993 17.98C74.346 16.071 77.52 15.634 80.514 16.67 83.505 17.7 86.092 20.131 88.275 23.965V23.965C90.633 28.104 91.482 31.855 90.824 35.216 90.165 38.577 88.047 41.276 84.468 43.315V43.315C81.138 45.211 77.965 45.609 74.949 44.509 71.93 43.403 69.308 40.896 67.082 36.987V36.987C64.771 32.929 63.957 29.254 64.64 25.963 65.32 22.666 67.437 20.005 70.993 17.98ZM72.497 21.327C70.202 22.634 68.915 24.347 68.636 26.466 68.354 28.579 69.089 31.174 70.841 34.25V34.25C72.75 37.603 74.693 39.743 76.668 40.67 78.649 41.594 80.787 41.402 83.082 40.095V40.095C85.401 38.775 86.692 37.056 86.956 34.938 87.219 32.82 86.454 30.185 84.66 27.034V27.034C82.776 23.727 80.851 21.623 78.883 20.723 76.921 19.819 74.792 20.02 72.497 21.327ZM131.694 0L133.738 14.044 134.205 17.315C134.788 20.692 134.277 23.457 132.672 25.611 131.068 27.772 128.53 29.121 125.058 29.659V29.659C121.705 30.179 119.002 29.678 116.948 28.158 114.89 26.646 113.634 24.235 113.182 20.925V20.925L112.678 17.085 110.45 3.291 114.839 2.611 117.3 19.671C117.647 22.082 118.44 23.793 119.681 24.806 120.929 25.818 122.627 26.158 124.777 25.825V25.825C129.077 25.158 130.868 22.592 130.149 18.125V18.125L127.226 0.692ZM173.149 28.648L173.368 29.088 172.381 32.311 158.287 29.55 160.207 21.363 163.661 2.127 168.185 3.013 164.248 21.758 163.365 26.731ZM215.461 22.233L208.978 50.87 205.011 48.521 206.049 45.494 206.966 41.536 201.939 38.409 197.27 35.796 194.284 38.273 191.975 40.802 188.119 38.519 210.935 19.553ZM203.96 35.604L207.861 37.81 210.982 24.685 210.716 24.527 200.218 33.285ZM236.267 64.292L234.776 65.497 228.766 70.786 225.878 67.36 232.138 62.369 233.411 61.231 241.657 42.724 244.745 46.387 243.778 47.933 238.384 59.713 238.61 59.98 251.455 57.178 253.301 56.534 256.306 60.098ZM251.518 103.596L254.229 109.777 253.968 110.172 250.657 111.165 244.524 95.85 252.441 93.013 270.466 85.462 276.632 100.861 276.367 101.246 273.041 102.202 270.748 95.992 268.728 91.082 261.129 93.985 262.923 98.706 264.757 102.939 264.548 103.356 261.231 104.308 259.522 99.692 257.677 95.324 254.304 96.621 249.581 98.652Z" fill="#ffffff" data-fill-palette-color="primary"></path><path d="M3.354 143.538c0-5.969 4.839-10.808 10.808-10.808 5.969 0 10.808 4.839 10.809 10.808 0 5.969-4.839 10.808-10.809 10.808-5.969 0-10.808-4.839-10.808-10.808zM254.858 143.538c0-5.969 4.839-10.808 10.808-10.808 5.969 0 10.808 4.839 10.808 10.808 0 5.969-4.839 10.808-10.808 10.808-5.969 0-10.808-4.839-10.808-10.808z" fill="#ffffff" data-fill-palette-color="primary"></path></svg></g></svg></g></svg></g></svg></g><defs></defs></svg><rect width="280" height="280" fill="none" stroke="none" visibility="hidden"></rect></g></svg></g></svg>